<svg width="20" height="20" viewBox="0 0 20 20" fill="none" xmlns="http://www.w3.org/2000/svg">
  <path d="M19.6 10.2273C19.6 9.51817 19.5364 8.83635 19.4182 8.18181H10V12.05H15.3818C15.15 13.3 14.4455 14.3591 13.3864 15.0682V17.5773H16.6182C18.5091 15.8364 19.6 13.2727 19.6 10.2273Z" fill="#4285F4"/>
  <path d="M10 20C12.7 20 14.9636 19.1045 16.6182 17.5773L13.3864 15.0682C12.4909 15.6682 11.3455 16.0227 10 16.0227C7.39545 16.0227 5.19091 14.2636 4.40454 11.9H1.06363V14.4909C2.70909 17.7591 6.09091 20 10 20Z" fill="#34A853"/>
  <path d="M4.40454 11.9C4.20454 11.3 4.09091 10.6591 4.09091 10C4.09091 9.3409 4.20454 8.7 4.40454 8.1V5.50908H1.06363C0.386364 6.85908 0 8.38635 0 10C0 11.6136 0.386364 13.1409 1.06363 14.4909L4.40454 11.9Z" fill="#FBBC04"/>
  <path d="M10 3.97727C11.4682 3.97727 12.7864 4.48181 13.8227 5.47272L16.6909 2.60454C14.9591 0.990904 12.6955 0 10 0C6.09091 0 2.70909 2.2409 1.06363 5.50908L4.40454 8.1C5.19091 5.73636 7.39545 3.97727 10 3.97727Z" fill="#E94235"/>
</svg>
